<mxfile host="app.diagrams.net" agent="Mozilla/5.0 (X11; Linux x86_64) AppleWebKit/537.36 (KHTML, like Gecko) Chrome/115.0.0.0 Safari/537.36" version="24.7.5">
  <diagram name="第 1 页" id="E16-yl-lEi0pdiKFPQxa">
    <mxGraphModel dx="1207" dy="691" grid="1" gridSize="10" guides="1" tooltips="1" connect="1" arrows="1" fold="1" page="1" pageScale="1" pageWidth="827" pageHeight="1169" math="0" shadow="0">
      <root>
        <mxCell id="0" />
        <mxCell id="1" parent="0" />
        <mxCell id="EcVXk8qpedQPtWjLakpb-1" value="quicklist总是保证头、尾节点没有被压缩" style="text;html=1;align=left;verticalAlign=middle;whiteSpace=wrap;rounded=0;" vertex="1" parent="1">
          <mxGeometry x="110" y="150" width="130" height="30" as="geometry" />
        </mxCell>
        <mxCell id="EcVXk8qpedQPtWjLakpb-2" value="大元素，用InsertPlainNode" style="text;whiteSpace=wrap;html=1;align=center;verticalAlign=top;" vertex="1" parent="1">
          <mxGeometry x="440" y="170" width="110" height="50" as="geometry" />
        </mxCell>
        <mxCell id="EcVXk8qpedQPtWjLakpb-3" value="小元素，如果节点可以插入，插入旧节点，即插入listpack" style="text;whiteSpace=wrap;html=1;align=center;verticalAlign=top;" vertex="1" parent="1">
          <mxGeometry x="440" y="215" width="110" height="50" as="geometry" />
        </mxCell>
        <mxCell id="EcVXk8qpedQPtWjLakpb-4" value="PushHead" style="rounded=0;whiteSpace=wrap;html=1;" vertex="1" parent="1">
          <mxGeometry x="290" y="215" width="100" height="20" as="geometry" />
        </mxCell>
        <mxCell id="EcVXk8qpedQPtWjLakpb-5" value="PushTail" style="rounded=0;whiteSpace=wrap;html=1;" vertex="1" parent="1">
          <mxGeometry x="290" y="260" width="100" height="20" as="geometry" />
        </mxCell>
        <mxCell id="EcVXk8qpedQPtWjLakpb-6" value="Push" style="rounded=0;whiteSpace=wrap;html=1;" vertex="1" parent="1">
          <mxGeometry x="140" y="235" width="100" height="20" as="geometry" />
        </mxCell>
        <mxCell id="EcVXk8qpedQPtWjLakpb-7" value="AppendListpack" style="rounded=0;whiteSpace=wrap;html=1;" vertex="1" parent="1">
          <mxGeometry x="140" y="340" width="100" height="20" as="geometry" />
        </mxCell>
        <mxCell id="EcVXk8qpedQPtWjLakpb-8" value="AppendPlainNode" style="rounded=0;whiteSpace=wrap;html=1;" vertex="1" parent="1">
          <mxGeometry x="140" y="370" width="100" height="20" as="geometry" />
        </mxCell>
        <mxCell id="EcVXk8qpedQPtWjLakpb-9" value="InsertAfter" style="rounded=0;whiteSpace=wrap;html=1;" vertex="1" parent="1">
          <mxGeometry x="140" y="450" width="100" height="20" as="geometry" />
        </mxCell>
        <mxCell id="EcVXk8qpedQPtWjLakpb-10" value="InsertBefore" style="rounded=0;whiteSpace=wrap;html=1;" vertex="1" parent="1">
          <mxGeometry x="140" y="420" width="100" height="20" as="geometry" />
        </mxCell>
        <mxCell id="EcVXk8qpedQPtWjLakpb-11" value="DelEntry" style="rounded=0;whiteSpace=wrap;html=1;" vertex="1" parent="1">
          <mxGeometry x="140" y="810" width="100" height="20" as="geometry" />
        </mxCell>
        <mxCell id="EcVXk8qpedQPtWjLakpb-12" value="ReplaceEntry" style="rounded=0;whiteSpace=wrap;html=1;" vertex="1" parent="1">
          <mxGeometry x="260" y="730" width="100" height="20" as="geometry" />
        </mxCell>
        <mxCell id="EcVXk8qpedQPtWjLakpb-13" value="ReplaceAtIndex" style="rounded=0;whiteSpace=wrap;html=1;" vertex="1" parent="1">
          <mxGeometry x="140" y="730" width="100" height="20" as="geometry" />
        </mxCell>
        <mxCell id="EcVXk8qpedQPtWjLakpb-14" value="小元素，如果节点不可以插入，创建新节点" style="text;whiteSpace=wrap;html=1;align=center;verticalAlign=top;" vertex="1" parent="1">
          <mxGeometry x="440" y="280" width="110" height="50" as="geometry" />
        </mxCell>
        <mxCell id="EcVXk8qpedQPtWjLakpb-15" value="" style="endArrow=classic;html=1;rounded=0;entryX=0;entryY=0.5;entryDx=0;entryDy=0;exitX=1;exitY=0.5;exitDx=0;exitDy=0;" edge="1" parent="1" source="EcVXk8qpedQPtWjLakpb-4" target="EcVXk8qpedQPtWjLakpb-2">
          <mxGeometry width="50" height="50" relative="1" as="geometry">
            <mxPoint x="250" y="210" as="sourcePoint" />
            <mxPoint x="570" y="380" as="targetPoint" />
          </mxGeometry>
        </mxCell>
        <mxCell id="EcVXk8qpedQPtWjLakpb-16" value="" style="endArrow=classic;html=1;rounded=0;exitX=1;exitY=0.5;exitDx=0;exitDy=0;entryX=0;entryY=0.5;entryDx=0;entryDy=0;exitPerimeter=0;" edge="1" parent="1" source="EcVXk8qpedQPtWjLakpb-4" target="EcVXk8qpedQPtWjLakpb-3">
          <mxGeometry width="50" height="50" relative="1" as="geometry">
            <mxPoint x="250" y="220" as="sourcePoint" />
            <mxPoint x="450" y="205" as="targetPoint" />
          </mxGeometry>
        </mxCell>
        <mxCell id="EcVXk8qpedQPtWjLakpb-17" value="__InsertNode" style="text;whiteSpace=wrap;html=1;align=center;verticalAlign=top;" vertex="1" parent="1">
          <mxGeometry x="690" y="330" width="100" height="20" as="geometry" />
        </mxCell>
        <mxCell id="EcVXk8qpedQPtWjLakpb-18" value="" style="endArrow=classic;html=1;rounded=0;exitX=1;exitY=0.5;exitDx=0;exitDy=0;entryX=0;entryY=0.5;entryDx=0;entryDy=0;" edge="1" parent="1" source="EcVXk8qpedQPtWjLakpb-2" target="EcVXk8qpedQPtWjLakpb-17">
          <mxGeometry width="50" height="50" relative="1" as="geometry">
            <mxPoint x="520" y="430" as="sourcePoint" />
            <mxPoint x="570" y="380" as="targetPoint" />
          </mxGeometry>
        </mxCell>
        <mxCell id="EcVXk8qpedQPtWjLakpb-19" value="" style="endArrow=classic;html=1;rounded=0;exitX=1;exitY=0.5;exitDx=0;exitDy=0;entryX=0;entryY=0.5;entryDx=0;entryDy=0;" edge="1" parent="1" source="EcVXk8qpedQPtWjLakpb-4" target="EcVXk8qpedQPtWjLakpb-14">
          <mxGeometry width="50" height="50" relative="1" as="geometry">
            <mxPoint x="520" y="430" as="sourcePoint" />
            <mxPoint x="570" y="380" as="targetPoint" />
          </mxGeometry>
        </mxCell>
        <mxCell id="EcVXk8qpedQPtWjLakpb-20" value="" style="endArrow=classic;html=1;rounded=0;exitX=1;exitY=0.5;exitDx=0;exitDy=0;entryX=0;entryY=0.5;entryDx=0;entryDy=0;" edge="1" parent="1" source="EcVXk8qpedQPtWjLakpb-14" target="EcVXk8qpedQPtWjLakpb-17">
          <mxGeometry width="50" height="50" relative="1" as="geometry">
            <mxPoint x="520" y="430" as="sourcePoint" />
            <mxPoint x="670" y="320" as="targetPoint" />
          </mxGeometry>
        </mxCell>
        <mxCell id="EcVXk8qpedQPtWjLakpb-21" value="" style="endArrow=classic;html=1;rounded=0;entryX=0;entryY=0.5;entryDx=0;entryDy=0;exitX=1;exitY=0.5;exitDx=0;exitDy=0;" edge="1" parent="1" source="EcVXk8qpedQPtWjLakpb-5" target="EcVXk8qpedQPtWjLakpb-2">
          <mxGeometry width="50" height="50" relative="1" as="geometry">
            <mxPoint x="290" y="280" as="sourcePoint" />
            <mxPoint x="570" y="380" as="targetPoint" />
          </mxGeometry>
        </mxCell>
        <mxCell id="EcVXk8qpedQPtWjLakpb-22" value="" style="endArrow=classic;html=1;rounded=0;exitX=1;exitY=0.5;exitDx=0;exitDy=0;entryX=0;entryY=0.5;entryDx=0;entryDy=0;" edge="1" parent="1" source="EcVXk8qpedQPtWjLakpb-5" target="EcVXk8qpedQPtWjLakpb-3">
          <mxGeometry width="50" height="50" relative="1" as="geometry">
            <mxPoint x="250" y="245" as="sourcePoint" />
            <mxPoint x="450" y="205" as="targetPoint" />
          </mxGeometry>
        </mxCell>
        <mxCell id="EcVXk8qpedQPtWjLakpb-23" value="" style="endArrow=classic;html=1;rounded=0;exitX=1;exitY=0.5;exitDx=0;exitDy=0;entryX=0;entryY=0.5;entryDx=0;entryDy=0;" edge="1" parent="1" source="EcVXk8qpedQPtWjLakpb-5" target="EcVXk8qpedQPtWjLakpb-14">
          <mxGeometry width="50" height="50" relative="1" as="geometry">
            <mxPoint x="260" y="255" as="sourcePoint" />
            <mxPoint x="460" y="215" as="targetPoint" />
          </mxGeometry>
        </mxCell>
        <mxCell id="EcVXk8qpedQPtWjLakpb-24" value="" style="endArrow=classic;html=1;rounded=0;exitX=1;exitY=0.5;exitDx=0;exitDy=0;entryX=0;entryY=0.5;entryDx=0;entryDy=0;" edge="1" parent="1" source="EcVXk8qpedQPtWjLakpb-6" target="EcVXk8qpedQPtWjLakpb-4">
          <mxGeometry width="50" height="50" relative="1" as="geometry">
            <mxPoint x="520" y="430" as="sourcePoint" />
            <mxPoint x="570" y="380" as="targetPoint" />
          </mxGeometry>
        </mxCell>
        <mxCell id="EcVXk8qpedQPtWjLakpb-25" value="" style="endArrow=classic;html=1;rounded=0;exitX=1;exitY=0.5;exitDx=0;exitDy=0;entryX=0;entryY=0.5;entryDx=0;entryDy=0;" edge="1" parent="1" source="EcVXk8qpedQPtWjLakpb-6" target="EcVXk8qpedQPtWjLakpb-5">
          <mxGeometry width="50" height="50" relative="1" as="geometry">
            <mxPoint x="250" y="255" as="sourcePoint" />
            <mxPoint x="300" y="235" as="targetPoint" />
          </mxGeometry>
        </mxCell>
        <mxCell id="EcVXk8qpedQPtWjLakpb-26" value="新建listpack" style="text;whiteSpace=wrap;html=1;align=center;verticalAlign=top;" vertex="1" parent="1">
          <mxGeometry x="300" y="337.5" width="100" height="25" as="geometry" />
        </mxCell>
        <mxCell id="EcVXk8qpedQPtWjLakpb-27" value="新建plainnode" style="text;whiteSpace=wrap;html=1;align=center;verticalAlign=top;" vertex="1" parent="1">
          <mxGeometry x="300" y="367.5" width="100" height="25" as="geometry" />
        </mxCell>
        <mxCell id="EcVXk8qpedQPtWjLakpb-28" value="" style="endArrow=classic;html=1;rounded=0;exitX=1;exitY=0.5;exitDx=0;exitDy=0;entryX=0;entryY=0.5;entryDx=0;entryDy=0;" edge="1" parent="1" source="EcVXk8qpedQPtWjLakpb-7" target="EcVXk8qpedQPtWjLakpb-26">
          <mxGeometry width="50" height="50" relative="1" as="geometry">
            <mxPoint x="520" y="430" as="sourcePoint" />
            <mxPoint x="570" y="380" as="targetPoint" />
          </mxGeometry>
        </mxCell>
        <mxCell id="EcVXk8qpedQPtWjLakpb-29" value="" style="endArrow=classic;html=1;rounded=0;exitX=1;exitY=0.5;exitDx=0;exitDy=0;entryX=0;entryY=0.5;entryDx=0;entryDy=0;" edge="1" parent="1" source="EcVXk8qpedQPtWjLakpb-8" target="EcVXk8qpedQPtWjLakpb-27">
          <mxGeometry width="50" height="50" relative="1" as="geometry">
            <mxPoint x="520" y="430" as="sourcePoint" />
            <mxPoint x="570" y="380" as="targetPoint" />
          </mxGeometry>
        </mxCell>
        <mxCell id="EcVXk8qpedQPtWjLakpb-30" value="" style="endArrow=classic;html=1;rounded=0;exitX=1;exitY=0.5;exitDx=0;exitDy=0;entryX=0;entryY=0.5;entryDx=0;entryDy=0;" edge="1" parent="1" source="EcVXk8qpedQPtWjLakpb-26" target="EcVXk8qpedQPtWjLakpb-32">
          <mxGeometry width="50" height="50" relative="1" as="geometry">
            <mxPoint x="520" y="430" as="sourcePoint" />
            <mxPoint x="570" y="380" as="targetPoint" />
          </mxGeometry>
        </mxCell>
        <mxCell id="EcVXk8qpedQPtWjLakpb-31" value="" style="endArrow=classic;html=1;rounded=0;exitX=1;exitY=0.5;exitDx=0;exitDy=0;entryX=0;entryY=0.5;entryDx=0;entryDy=0;" edge="1" parent="1" source="EcVXk8qpedQPtWjLakpb-27" target="EcVXk8qpedQPtWjLakpb-32">
          <mxGeometry width="50" height="50" relative="1" as="geometry">
            <mxPoint x="410" y="360" as="sourcePoint" />
            <mxPoint x="570" y="380" as="targetPoint" />
          </mxGeometry>
        </mxCell>
        <mxCell id="EcVXk8qpedQPtWjLakpb-32" value="_InsertNodeAfter，尾插新节点" style="text;whiteSpace=wrap;html=1;align=center;verticalAlign=top;" vertex="1" parent="1">
          <mxGeometry x="440" y="350" width="110" height="40" as="geometry" />
        </mxCell>
        <mxCell id="EcVXk8qpedQPtWjLakpb-33" value="" style="endArrow=classic;html=1;rounded=0;exitX=1;exitY=0.5;exitDx=0;exitDy=0;entryX=0;entryY=0.5;entryDx=0;entryDy=0;" edge="1" parent="1" source="EcVXk8qpedQPtWjLakpb-32" target="EcVXk8qpedQPtWjLakpb-17">
          <mxGeometry width="50" height="50" relative="1" as="geometry">
            <mxPoint x="520" y="430" as="sourcePoint" />
            <mxPoint x="570" y="380" as="targetPoint" />
          </mxGeometry>
        </mxCell>
        <mxCell id="EcVXk8qpedQPtWjLakpb-34" value="_Insert(..., after)" style="text;whiteSpace=wrap;html=1;align=center;verticalAlign=top;" vertex="1" parent="1">
          <mxGeometry x="300" y="430" width="100" height="25" as="geometry" />
        </mxCell>
        <mxCell id="EcVXk8qpedQPtWjLakpb-35" value="" style="endArrow=classic;html=1;rounded=0;exitX=1;exitY=0.5;exitDx=0;exitDy=0;entryX=0;entryY=0.5;entryDx=0;entryDy=0;" edge="1" parent="1" source="EcVXk8qpedQPtWjLakpb-10" target="EcVXk8qpedQPtWjLakpb-34">
          <mxGeometry width="50" height="50" relative="1" as="geometry">
            <mxPoint x="520" y="430" as="sourcePoint" />
            <mxPoint x="570" y="380" as="targetPoint" />
          </mxGeometry>
        </mxCell>
        <mxCell id="EcVXk8qpedQPtWjLakpb-36" value="" style="endArrow=classic;html=1;rounded=0;exitX=1;exitY=0.5;exitDx=0;exitDy=0;entryX=0;entryY=0.5;entryDx=0;entryDy=0;" edge="1" parent="1" source="EcVXk8qpedQPtWjLakpb-9" target="EcVXk8qpedQPtWjLakpb-34">
          <mxGeometry width="50" height="50" relative="1" as="geometry">
            <mxPoint x="250" y="440" as="sourcePoint" />
            <mxPoint x="310" y="453" as="targetPoint" />
          </mxGeometry>
        </mxCell>
        <mxCell id="EcVXk8qpedQPtWjLakpb-37" value="curr" style="rounded=0;whiteSpace=wrap;html=1;" vertex="1" parent="1">
          <mxGeometry x="500" y="435" width="30" height="20" as="geometry" />
        </mxCell>
        <mxCell id="EcVXk8qpedQPtWjLakpb-38" value="prev" style="rounded=0;whiteSpace=wrap;html=1;" vertex="1" parent="1">
          <mxGeometry x="440" y="435" width="30" height="20" as="geometry" />
        </mxCell>
        <mxCell id="EcVXk8qpedQPtWjLakpb-39" value="next" style="rounded=0;whiteSpace=wrap;html=1;" vertex="1" parent="1">
          <mxGeometry x="560" y="435" width="30" height="20" as="geometry" />
        </mxCell>
        <mxCell id="EcVXk8qpedQPtWjLakpb-40" value="" style="endArrow=classic;startArrow=classic;html=1;rounded=0;exitX=1;exitY=0.5;exitDx=0;exitDy=0;entryX=0;entryY=0.5;entryDx=0;entryDy=0;" edge="1" parent="1" source="EcVXk8qpedQPtWjLakpb-38" target="EcVXk8qpedQPtWjLakpb-37">
          <mxGeometry width="50" height="50" relative="1" as="geometry">
            <mxPoint x="520" y="425" as="sourcePoint" />
            <mxPoint x="570" y="375" as="targetPoint" />
          </mxGeometry>
        </mxCell>
        <mxCell id="EcVXk8qpedQPtWjLakpb-41" value="" style="endArrow=classic;startArrow=classic;html=1;rounded=0;exitX=1;exitY=0.5;exitDx=0;exitDy=0;entryX=0;entryY=0.5;entryDx=0;entryDy=0;" edge="1" parent="1" source="EcVXk8qpedQPtWjLakpb-37" target="EcVXk8qpedQPtWjLakpb-39">
          <mxGeometry width="50" height="50" relative="1" as="geometry">
            <mxPoint x="470" y="455" as="sourcePoint" />
            <mxPoint x="510" y="455" as="targetPoint" />
          </mxGeometry>
        </mxCell>
        <mxCell id="EcVXk8qpedQPtWjLakpb-42" value="&lt;div&gt;相对关系。如果是正向遍历，那就是直接用node-&amp;gt;prev和next，否则需要用node-&amp;gt;next或prev&lt;/div&gt;&lt;div&gt;&lt;br&gt;&lt;/div&gt;&lt;div&gt;1. value是大元素，如果curr是packed且不是在curr前或者后插入，那么要分割curr&lt;div&gt;2. value是大元素，且是在curr边界，作为链表插入&lt;/div&gt;&lt;div&gt;3. value是小元素，且curr有空间，插入curr&lt;/div&gt;&lt;div&gt;4. value是小元素，且curr没有空间，如果是后插入，尝试插入next，如果next没有空间，新建packed，插入到新的节点&lt;/div&gt;&lt;div&gt;5.&amp;nbsp;&lt;span style=&quot;background-color: initial;&quot;&gt;value是小元素，且curr没有空间，如果是前插入，尝试插入prev，如果prev没有空间，新建packed，插入到新的节点&lt;/span&gt;&lt;/div&gt;&lt;/div&gt;&lt;div&gt;&lt;span style=&quot;background-color: initial;&quot;&gt;&lt;br&gt;&lt;/span&gt;&lt;/div&gt;&lt;div&gt;没有新建packed或者执行1、2，则会调用__InsertNode&lt;/div&gt;" style="text;html=1;align=left;verticalAlign=middle;whiteSpace=wrap;rounded=0;" vertex="1" parent="1">
          <mxGeometry x="400" y="460" width="300" height="220" as="geometry" />
        </mxCell>
        <mxCell id="EcVXk8qpedQPtWjLakpb-43" value="" style="endArrow=classic;html=1;rounded=0;exitX=1;exitY=0.5;exitDx=0;exitDy=0;entryX=0;entryY=0.5;entryDx=0;entryDy=0;" edge="1" parent="1" source="EcVXk8qpedQPtWjLakpb-13" target="EcVXk8qpedQPtWjLakpb-12">
          <mxGeometry width="50" height="50" relative="1" as="geometry">
            <mxPoint x="520" y="690" as="sourcePoint" />
            <mxPoint x="570" y="640" as="targetPoint" />
          </mxGeometry>
        </mxCell>
        <mxCell id="EcVXk8qpedQPtWjLakpb-44" value="" style="endArrow=classic;html=1;rounded=0;exitX=1;exitY=0.5;exitDx=0;exitDy=0;entryX=0;entryY=0.5;entryDx=0;entryDy=0;" edge="1" parent="1" source="EcVXk8qpedQPtWjLakpb-12" target="EcVXk8qpedQPtWjLakpb-45">
          <mxGeometry width="50" height="50" relative="1" as="geometry">
            <mxPoint x="520" y="600" as="sourcePoint" />
            <mxPoint x="400" y="710" as="targetPoint" />
          </mxGeometry>
        </mxCell>
        <mxCell id="EcVXk8qpedQPtWjLakpb-45" value="1. old是plain，所以直接替换，否则InsertAfter&lt;div&gt;2. old是packed, new是small，listpackReplace即可&lt;/div&gt;&lt;div&gt;3. old是packed, new是large，在边界则插入，否则分割old再插入，最后删除old中对应的值，这里需要compress&lt;/div&gt;" style="text;html=1;align=left;verticalAlign=middle;whiteSpace=wrap;rounded=0;" vertex="1" parent="1">
          <mxGeometry x="400" y="690" width="290" height="100" as="geometry" />
        </mxCell>
        <mxCell id="EcVXk8qpedQPtWjLakpb-46" value="DelRange" style="rounded=0;whiteSpace=wrap;html=1;" vertex="1" parent="1">
          <mxGeometry x="140" y="850" width="100" height="20" as="geometry" />
        </mxCell>
        <mxCell id="EcVXk8qpedQPtWjLakpb-47" value="由于包含了两种节点，所以删除就有对整个节点的删除，对listpack的部分删除" style="text;html=1;align=center;verticalAlign=middle;whiteSpace=wrap;rounded=0;" vertex="1" parent="1">
          <mxGeometry x="330" y="845" width="260" height="30" as="geometry" />
        </mxCell>
        <mxCell id="EcVXk8qpedQPtWjLakpb-48" value="没啥好说的" style="text;html=1;align=center;verticalAlign=middle;whiteSpace=wrap;rounded=0;" vertex="1" parent="1">
          <mxGeometry x="330" y="805" width="80" height="30" as="geometry" />
        </mxCell>
        <mxCell id="EcVXk8qpedQPtWjLakpb-49" value="" style="endArrow=classic;html=1;rounded=0;exitX=1;exitY=0.5;exitDx=0;exitDy=0;entryX=0;entryY=0.5;entryDx=0;entryDy=0;" edge="1" parent="1" source="EcVXk8qpedQPtWjLakpb-11" target="EcVXk8qpedQPtWjLakpb-48">
          <mxGeometry width="50" height="50" relative="1" as="geometry">
            <mxPoint x="520" y="760" as="sourcePoint" />
            <mxPoint x="570" y="710" as="targetPoint" />
          </mxGeometry>
        </mxCell>
        <mxCell id="EcVXk8qpedQPtWjLakpb-50" value="" style="endArrow=classic;html=1;rounded=0;exitX=1;exitY=0.5;exitDx=0;exitDy=0;entryX=0;entryY=0.5;entryDx=0;entryDy=0;" edge="1" parent="1" source="EcVXk8qpedQPtWjLakpb-46" target="EcVXk8qpedQPtWjLakpb-47">
          <mxGeometry width="50" height="50" relative="1" as="geometry">
            <mxPoint x="250" y="830" as="sourcePoint" />
            <mxPoint x="340" y="830" as="targetPoint" />
          </mxGeometry>
        </mxCell>
      </root>
    </mxGraphModel>
  </diagram>
</mxfile>
